<?xml version="1.0" standalone="no"?>
<!DOCTYPE svg PUBLIC "-//W3C//DTD SVG 20010904//EN"
 "http://www.w3.org/TR/2001/REC-SVG-20010904/DTD/svg10.dtd">
<svg version="1.0" xmlns="http://www.w3.org/2000/svg"
 width="1200.000000pt" height="1200.000000pt" viewBox="0 0 1200.000000 1200.000000"
 preserveAspectRatio="xMidYMid meet">

<g transform="translate(0.000000,1200.000000) scale(0.100000,-0.100000)"
fill="#000000" stroke="none">
<path d="M5545 8969 c-236 -138 -745 -433 -1130 -656 -385 -223 -706 -411
-713 -418 -11 -10 -15 -92 -19 -394 l-6 -382 159 92 c87 51 236 137 329 192
196 115 714 417 1360 792 415 241 450 264 456 292 9 47 12 733 2 733 -4 -1
-201 -114 -438 -251z"/>
<path d="M5535 7654 c-242 -141 -501 -291 -575 -333 -168 -97 -745 -433 -1042
-606 l-223 -131 -5 -94 c-4 -52 -7 -227 -8 -387 l-3 -293 158 92 c87 50 235
136 328 191 237 139 614 358 780 454 145 83 254 146 916 534 105 62 117 72
121 100 9 58 10 729 1 729 -4 -1 -206 -116 -448 -256z"/>
<path d="M8004 7707 c-171 -100 -328 -194 -350 -208 -21 -14 -136 -81 -254
-149 -476 -273 -808 -465 -855 -495 -27 -17 -156 -93 -286 -169 -133 -77 -239
-145 -241 -154 -3 -9 -6 -183 -7 -385 l-2 -368 23 14 c40 26 1080 629 1160
674 109 60 545 313 723 420 83 49 203 120 268 157 64 38 120 72 123 78 7 10
19 768 13 767 -2 0 -144 -82 -315 -182z"/>
<path d="M7995 6391 c-176 -103 -692 -405 -1146 -670 -686 -400 -828 -486
-831 -506 -3 -13 -6 -185 -7 -381 -2 -292 0 -356 11 -352 7 3 375 216 818 473
443 257 949 551 1125 652 176 102 326 191 333 198 11 10 15 93 19 394 4 209 4
381 2 380 -2 0 -148 -85 -324 -188z"/>
<path d="M7214 3566 c-42 -19 -61 -65 -44 -106 13 -31 54 -60 85 -60 30 0 72
29 84 59 15 35 9 60 -22 89 -30 28 -66 34 -103 18z"/>
<path d="M7860 3490 l0 -60 80 0 80 0 0 -325 0 -325 -85 0 -85 0 0 -60 0 -60
245 0 245 0 0 60 0 60 -85 0 -85 0 0 385 0 385 -155 0 -155 0 0 -60z"/>
<path d="M1980 3075 l0 -415 65 0 65 0 0 195 0 195 155 0 155 0 0 60 0 60
-155 0 -155 0 0 100 0 100 193 0 193 0 -1 58 0 57 -258 3 -257 2 0 -415z"/>
<path d="M6170 3075 l0 -415 65 0 65 0 0 195 0 195 155 0 155 0 0 60 0 60
-155 0 -155 0 0 100 0 100 193 0 193 0 -1 58 0 57 -258 3 -257 2 0 -415z"/>
<path d="M5548 3427 l-77 -9 -6 -74 -7 -74 -64 0 -64 0 0 -60 0 -60 63 0 63 0
-4 -138 c-7 -206 18 -289 98 -336 53 -31 157 -27 238 9 34 15 62 32 62 37 0
10 -21 98 -24 98 0 0 -23 -11 -50 -25 -140 -71 -192 -2 -179 240 l6 115 99 0
98 0 1 43 c0 23 2 50 4 60 3 15 -7 17 -96 17 l-99 0 0 54 c0 30 5 67 10 82 6
15 9 27 8 28 -2 1 -38 -2 -80 -7z"/>
<path d="M2950 3265 c-58 -17 -130 -58 -130 -75 0 -6 15 -26 33 -46 l32 -36
45 26 c89 51 194 43 230 -17 11 -18 20 -42 20 -54 0 -22 -4 -23 -65 -23 -173
0 -297 -66 -326 -172 -33 -123 54 -212 206 -212 73 1 119 17 163 57 l22 20 0
-36 0 -37 75 0 75 0 0 203 c0 238 -10 287 -68 345 -20 20 -55 43 -77 50 -65
21 -173 24 -235 7z m235 -357 c-19 -93 -71 -140 -155 -140 -69 0 -100 21 -100
70 0 69 56 100 183 101 l79 1 -7 -32z"/>
<path d="M4657 3266 c-129 -35 -184 -158 -110 -246 32 -39 84 -65 195 -100
107 -34 138 -53 138 -85 0 -42 -43 -65 -124 -65 -84 0 -167 34 -195 81 l-17
27 -34 -63 c-40 -74 -38 -78 44 -118 102 -50 272 -56 356 -12 88 46 126 157
80 233 -27 44 -68 67 -185 104 -151 47 -178 65 -155 108 32 60 195 48 249 -19
l25 -29 38 50 c43 58 41 64 -26 103 -76 43 -187 55 -279 31z"/>
<path d="M8830 3269 c-14 -6 -35 -20 -47 -31 l-23 -21 0 26 c0 26 -2 27 -60
27 l-60 0 0 -305 0 -305 65 0 65 0 0 219 c0 225 7 273 40 291 26 14 36 13 54
-6 14 -13 16 -51 16 -260 l0 -244 60 0 60 0 0 215 c0 229 7 272 48 294 26 14
28 14 46 -5 14 -13 16 -51 16 -260 l0 -244 65 0 65 0 0 238 c-1 250 -8 313
-42 349 -43 45 -140 39 -188 -12 -28 -30 -37 -31 -45 -5 -13 40 -82 60 -135
39z"/>
<path d="M9687 3266 c-129 -35 -184 -158 -110 -246 32 -39 84 -65 195 -100
107 -34 138 -53 138 -85 0 -42 -43 -65 -124 -65 -84 0 -167 34 -195 81 l-17
27 -34 -63 c-40 -74 -38 -78 44 -118 102 -50 272 -56 356 -12 88 46 126 157
80 233 -27 44 -68 67 -185 104 -151 47 -178 65 -155 108 32 60 195 48 249 -19
l25 -29 38 50 c43 58 41 64 -26 103 -76 43 -187 55 -279 31z"/>
<path d="M3640 3062 c0 -162 4 -220 16 -263 45 -153 236 -195 346 -76 l28 29
0 -30 c0 -57 6 -62 77 -62 63 0 65 1 59 23 -3 12 -6 149 -6 305 l0 282 -69 0
-69 0 -4 -197 c-3 -164 -6 -204 -21 -233 -46 -94 -181 -92 -203 3 -4 17 -8
120 -8 227 l-1 195 -73 3 -72 3 0 -209z"/>
<path d="M7040 3210 l0 -60 75 0 75 0 0 -185 0 -185 -75 0 -75 0 0 -60 0 -60
215 0 215 0 0 60 0 60 -70 0 -70 0 0 245 0 245 -145 0 -145 0 0 -60z"/>
</g>
</svg>
